<?xml version="1.0" encoding="UTF-8"?>
<svg version="1.1" xmlns="http://www.w3.org/2000/svg" width="2000" height="2000">
<path d="M0 0 C1.42113098 0.12728485 1.42113098 0.12728485 2.87097168 0.25714111 C95.27730886 8.61801028 186.74470549 29.22598433 355.64794922 99.35546875 C357.77811851 100.40053942 359.90978875 101.44256048 362.04345703 102.48046875 C375.44346229 108.99902011 388.43684962 116.08054973 401.35888672 123.49804688 C404.44672451 125.25404411 407.5616191 126.95549765 410.68286133 128.65112305 C440.99495041 145.18151485 470.09431902 164.68850658 498 185 C498.73750488 185.53463867 499.47500977 186.06927734 500.23486328 186.62011719 C525.03691895 204.63095075 548.82714351 223.83145987 571.81640625 244.1015625 C573.62502521 245.6739933 575.4464737 247.22713992 577.27734375 248.7734375 C583.33415133 253.89937319 589.25708316 259.0204993 594.7421875 264.76953125 C596.64227172 266.64660406 598.57594627 268.37223429 600.60180664 270.10839844 C605.130003 274.0584585 609.38700246 278.24268102 613.62890625 282.49609375 C614.8189048 283.68465721 614.8189048 283.68465721 616.03294373 284.89723206 C617.69889081 286.56250283 619.36359256 288.22902029 621.02709961 289.89672852 C623.55536134 292.43034622 626.08891661 294.95858167 628.62304688 297.48632812 C630.2503207 299.11426283 631.87728425 300.74250775 633.50390625 302.37109375 C634.25201065 303.11717392 635.00011505 303.86325409 635.77088928 304.63194275 C639.8200662 308.69898548 643.70893962 312.85002915 647.44700623 317.20545959 C650.04942572 320.21264932 652.78021532 323.09930657 655.5 326 C660.09150696 330.92504463 664.63232877 335.87398585 669 341 C670.17369141 342.37285156 670.17369141 342.37285156 671.37109375 343.7734375 C674.26402015 347.16838435 677.13573885 350.58084939 680 354 C680.5460791 354.65178223 681.0921582 355.30356445 681.65478516 355.97509766 C689.82665171 365.75377879 697.70912478 375.7122629 705.39111328 385.87939453 C706.99935947 387.99915575 708.62031319 390.10850805 710.24609375 392.21484375 C762.73601114 460.24505829 806.4430947 536.47888633 910 910 C910.0835675 910.92292847 910.16713501 911.84585693 910.25323486 912.79675293 C915.30438897 969.35820753 915.11999753 1027.45419939 910 1084 C909.91514343 1084.94742065 909.83028687 1085.89484131 909.74285889 1086.87097168 C903.17206225 1159.49299663 889.22300789 1231.55613597 866.66674805 1300.94366455 C865.99460878 1303.01662722 865.32943607 1305.09171242 864.66601562 1307.16748047 C844.91373557 1368.86414898 818.91278536 1429.44429278 786.42138672 1485.52001953 C784.68875816 1488.5430427 783.02226475 1491.59887915 781.35986328 1494.66088867 C764.83795976 1524.98315767 745.31791248 1554.093054 725 1582 C724.44940918 1582.75877441 723.89881836 1583.51754883 723.33154297 1584.29931641 C712.17147602 1599.65170815 700.47795158 1614.49989391 688.47216797 1629.19580078 C687.17728489 1630.78273046 685.88709522 1632.37348737 684.59765625 1633.96484375 C675.94130634 1644.62483343 667.01638626 1655.02733013 657.66796875 1665.0859375 C655.60547588 1667.33867495 653.58335646 1669.61113406 651.578125 1671.9140625 C640.13339717 1685.03208634 627.79335764 1697.31066778 615.5 1709.625 C614.79650421 1710.33108398 614.09300842 1711.03716797 613.36819458 1711.76464844 C611.32133702 1713.81743529 609.27070574 1715.86637298 607.21875 1717.9140625 C606.61079086 1718.52400055 606.00283173 1719.1339386 605.37644958 1719.76235962 C601.66419915 1723.45502662 597.83448239 1726.96060727 593.86547852 1730.37606812 C590.66311237 1733.16378421 587.58937866 1736.088436 584.5 1739 C579.41421139 1743.76597866 574.31290334 1748.48656211 569 1753 C567.62908203 1754.17175781 567.62908203 1754.17175781 566.23046875 1755.3671875 C562.83439521 1758.26162932 559.4205613 1761.1345571 556 1764 C555.34821777 1764.5460791 554.69643555 1765.0921582 554.02490234 1765.65478516 C544.24622121 1773.82665171 534.2877371 1781.70912478 524.12060547 1789.39111328 C522.00084425 1790.99935947 519.89149195 1792.62031319 517.78515625 1794.24609375 C449.76524585 1846.7280608 373.51415823 1890.50417663 0 1994 C-0.94224426 1994.0835675 -1.88448853 1994.16713501 -2.85528564 1994.25323486 C-54.23037534 1998.72519361 -107.38695774 1999.50019162 -158.81878662 1995.18035889 C-161.16452349 1994.98639598 -163.51103527 1994.80513928 -165.85791016 1994.62548828 C-253.05812304 1987.87940423 -339.74234566 1969.84588668 -479 1918 C-480.6392041 1917.29593018 -480.6392041 1917.29593018 -482.31152344 1916.57763672 C-518.89338 1900.80475056 -554.9596826 1883.12085901 -589.16650391 1862.68652344 C-591.9705937 1861.0175029 -594.78573046 1859.36898484 -597.60546875 1857.7265625 C-617.2559054 1846.25976734 -636.34198949 1834.01693186 -655 1821 C-655.71462402 1820.50290527 -656.42924805 1820.00581055 -657.16552734 1819.49365234 C-678.50187755 1804.63117291 -699.06429246 1788.91855231 -719.19580078 1772.47216797 C-720.78273046 1771.17728489 -722.37348737 1769.88709522 -723.96484375 1768.59765625 C-734.62483343 1759.94130634 -745.02733013 1751.01638626 -755.0859375 1741.66796875 C-757.27385116 1739.66482528 -759.47966215 1737.70462073 -761.71948242 1735.76123047 C-774.08259413 1724.95631153 -785.75990978 1713.40392197 -797.34887695 1701.78149414 C-799.58885186 1699.5360842 -801.83422696 1697.29617161 -804.08007812 1695.05664062 C-805.53417542 1693.60188354 -806.98796303 1692.14681682 -808.44140625 1690.69140625 C-809.42748619 1689.70836266 -809.42748619 1689.70836266 -810.43348694 1688.70545959 C-814.24923732 1684.87057284 -817.88607358 1680.9290683 -821.41404724 1676.82749939 C-824.03081401 1673.8121891 -826.76956598 1670.91205112 -829.5 1668 C-834.09150696 1663.07495537 -838.63232877 1658.12601415 -843 1653 C-844.17369141 1651.62714844 -844.17369141 1651.62714844 -845.37109375 1650.2265625 C-848.26402015 1646.83161565 -851.13573885 1643.41915061 -854 1640 C-854.81911865 1639.02232666 -854.81911865 1639.02232666 -855.65478516 1638.02490234 C-863.82665171 1628.24622121 -871.70912478 1618.2877371 -879.39111328 1608.12060547 C-880.99935947 1606.00084425 -882.62031319 1603.89149195 -884.24609375 1601.78515625 C-921.64702314 1553.3112135 -953.54425565 1500.85854731 -981.29833984 1446.3359375 C-982.80903482 1443.37436847 -984.33365464 1440.42056581 -985.86328125 1437.46875 C-1026.6617301 1358.11434674 -1054.63728605 1270.05249645 -1084 1084 C-1084.0835675 1083.09638733 -1084.16713501 1082.19277466 -1084.25323486 1081.26177979 C-1089.43444547 1024.74936538 -1089.22494538 966.49716181 -1084 910 C-1083.91514343 909.06416077 -1083.83028687 908.12832153 -1083.74285889 907.16412354 C-1075.36140899 815.20169547 -1055.00836039 724.19266263 -984.61230469 554.27148438 C-983.10944326 551.22206839 -981.61978312 548.16656163 -980.1328125 545.109375 C-974.04822352 532.68039578 -967.38986061 520.64055113 -960.50195312 508.64111328 C-958.74595589 505.55327549 -957.04450235 502.4383809 -955.34887695 499.31713867 C-938.81848515 469.00504959 -919.31149342 439.90568098 -899 412 C-898.46536133 411.26249512 -897.93072266 410.52499023 -897.37988281 409.76513672 C-881.57362538 387.99892165 -864.8163681 367.06049004 -847.36083984 346.59912109 C-845.95021698 344.94150004 -844.54712211 343.27770172 -843.14453125 341.61328125 C-836.34463016 333.57415642 -829.27242121 325.83437817 -822.04003906 318.18359375 C-820.51985897 316.55644072 -819.01357233 314.91628614 -817.51464844 313.26953125 C-809.45177952 304.41251091 -801.06065368 295.90702005 -792.58056641 287.45019531 C-790.23613323 285.11116519 -787.89715129 282.76677803 -785.55859375 280.421875 C-784.04459166 278.90853313 -782.5302797 277.39550119 -781.015625 275.8828125 C-780.32897766 275.19414093 -779.64233032 274.50546936 -778.93487549 273.79592896 C-775.01957356 269.89928722 -771.00555401 266.17539602 -766.81610107 262.57455444 C-763.80361092 259.96273408 -760.90811106 257.22676534 -758 254.5 C-753.07464298 249.90780598 -748.11273466 245.38366239 -743 241 C-741.96587775 240.10056855 -740.93205147 239.20079676 -739.8984375 238.30078125 C-733.43161459 232.69053356 -726.87037199 227.25117144 -720.10644531 222.00268555 C-716.37462266 219.10160541 -712.73219828 216.11886935 -709.125 213.0625 C-702.66876592 207.64676863 -695.95287607 202.6147613 -689.17578125 197.609375 C-686.96647821 195.97520471 -684.76412553 194.33199516 -682.5625 192.6875 C-643.11190601 163.30787586 -601.45777954 137.03340516 -558 114 C-557.0394873 113.49082031 -556.07897461 112.98164062 -555.08935547 112.45703125 C-548.41468953 108.9286534 -541.71308489 105.45460647 -535 102 C-534.07880371 101.52240234 -533.15760742 101.04480469 -532.20849609 100.55273438 C-451.98643971 59.05905132 -363.53422346 30.30960713 -174 0 C-173.07707153 -0.0835675 -172.15414307 -0.16713501 -171.20324707 -0.25323486 C-114.64179247 -5.30438897 -56.54580061 -5.11999753 0 0 Z " fill="#524F4F" transform="translate(1087,3)"/>
<path d="M0 0 C0.86404638 -0.00282738 1.72809277 -0.00565475 2.61832237 -0.00856781 C7.20624449 -0.0234232 11.79413637 -0.03273409 16.38208008 -0.03710938 C20.08042471 -0.04145592 23.77853104 -0.05521832 27.47680664 -0.078125 C52.53712353 -0.23012265 77.22968369 0.70904466 102.16796875 3.203125 C103.49734149 3.33410776 104.82672779 3.46495295 106.15612793 3.59565735 C121.94934093 5.16194891 137.55615174 7.35034325 153.16796875 10.203125 C154.2343457 10.39664551 155.30072266 10.59016602 156.39941406 10.78955078 C177.95658643 14.73247026 198.96004932 19.58975746 219.86523438 26.17138672 C222.81700293 27.0934871 225.77339394 27.99876142 228.73269653 28.89634705 C269.02111554 41.12051397 308.61153118 56.0706002 346.16796875 75.203125 C345.56290512 78.73113967 344.62999304 81.77229018 343.19702148 85.04882812 C342.78766357 85.9915155 342.37830566 86.93420288 341.95654297 87.90545654 C341.50939941 88.92149963 341.06225586 89.93754272 340.6015625 90.984375 C339.90293091 92.58795868 339.90293091 92.58795868 339.19018555 94.22393799 C337.66639561 97.71896097 336.13586906 101.21099221 334.60546875 104.703125 C333.54966786 107.12248415 332.49441415 109.54208215 331.43969727 111.96191406 C329.33032796 116.80037292 327.21884268 121.63789838 325.10546875 126.47460938 C321.25374531 135.29283272 317.42444727 144.12067926 313.60546875 152.953125 C313.29133026 153.6791391 312.97719177 154.4051532 312.65353394 155.15316772 C305.74063351 171.13394976 298.94137033 187.16279924 292.16796875 203.203125 C288.21547427 202.60724471 285.31231688 201.38217034 281.8359375 199.4296875 C280.80291504 198.85774658 279.76989258 198.28580566 278.70556641 197.6965332 C277.60003418 197.0799585 276.49450195 196.46338379 275.35546875 195.828125 C211.30888614 160.80808509 138.08468328 139.08963838 65.50512695 132.51269531 C63.70932631 132.34610849 61.91377556 132.17172324 60.12387085 131.9506073 C52.0486196 131.00411446 43.97340819 131.03909141 35.85546875 131.03515625 C34.27620414 131.03193292 32.69693981 131.02856809 31.11767578 131.02507019 C27.81623647 131.01911031 24.51482321 131.01722687 21.21337891 131.01782227 C17.03627046 131.01792332 12.85933414 131.00431569 8.68226624 130.98705006 C5.42005691 130.97578442 2.15788716 130.97390751 -1.1043396 130.97443199 C-2.64131255 130.97327193 -4.17828722 130.96896515 -5.71524048 130.96109962 C-16.88733405 130.90930499 -27.75287245 131.78415561 -38.83203125 133.203125 C-39.86881012 133.32939774 -40.90558899 133.45567047 -41.9737854 133.58576965 C-83.87753897 138.70131564 -124.99581067 151.29400912 -158.83203125 177.203125 C-159.78464844 177.93144531 -160.73726562 178.65976562 -161.71875 179.41015625 C-185.85885437 198.52250707 -204.8017445 225.17293921 -209.12426758 256.30810547 C-211.05836927 273.2586209 -210.97247581 291.41799029 -207.83203125 308.203125 C-207.71375977 308.8621582 -207.59548828 309.52119141 -207.47363281 310.20019531 C-203.53005558 331.50354 -193.95006877 351.7813073 -179.83203125 368.203125 C-179.31898438 368.83734375 -178.8059375 369.4715625 -178.27734375 370.125 C-174.54559527 374.68378463 -170.36887447 378.45775598 -165.83203125 382.203125 C-165.30963867 382.63786133 -164.78724609 383.07259766 -164.24902344 383.52050781 C-155.16418768 391.05290396 -145.80800646 397.90081673 -135.83203125 404.203125 C-134.74535156 404.8940625 -133.65867187 405.585 -132.5390625 406.296875 C-110.89456006 419.64722403 -88.02842068 430.848683 -64.83203125 441.203125 C-63.6920166 441.71520508 -62.55200195 442.22728516 -61.37744141 442.75488281 C-31.88934267 455.95031851 -1.73051798 467.57423127 28.54296875 478.828125 C56.10664707 489.07477245 83.39808045 500.01993821 110.16796875 512.203125 C111.28429688 512.71053223 112.400625 513.21793945 113.55078125 513.74072266 C138.0003915 524.89145261 161.95091645 536.65536031 185.16796875 550.203125 C186.4830542 550.96906982 186.4830542 550.96906982 187.82470703 551.75048828 C210.29992256 564.89589071 232.3197306 579.29750355 252.16796875 596.203125 C253.25109528 597.11222562 254.33444112 598.02106498 255.41796875 598.9296875 C273.20937229 613.92870702 289.78700479 629.82586855 303.82958984 648.43652344 C305.16292087 650.19646202 306.51779273 651.93812538 307.875 653.6796875 C332.69448384 685.98102542 348.06351816 726.375019 353.625 766.5625 C354.05171336 770.14240556 354.05171336 770.14240556 355.16796875 773.203125 C357.45676015 787.2893834 357.47721002 801.41335616 357.42871094 815.65063477 C357.41803699 819.36686711 357.42863828 823.08261082 357.44140625 826.79882812 C357.45387805 846.30464044 356.59451962 865.67152427 353.04296875 884.890625 C352.83124023 886.04723633 352.61951172 887.20384766 352.40136719 888.39550781 C347.3084717 914.92010977 338.94698652 941.53859528 326.13427734 965.38818359 C325.16655901 967.2057728 324.23628652 969.03865323 323.3125 970.87890625 C315.61495306 986.03176264 305.85018671 1000.01233019 295.16796875 1013.203125 C294.34941406 1014.22664063 293.53085938 1015.25015625 292.6875 1016.3046875 C286.12869284 1024.31858222 278.90127902 1031.67949019 271.60546875 1039.015625 C271.12268463 1039.50367615 270.63990051 1039.99172729 270.14248657 1040.49456787 C263.50067039 1047.19233739 256.58019479 1053.36442755 249.16796875 1059.203125 C248.56073975 1059.68998779 247.95351074 1060.17685059 247.32788086 1060.6784668 C208.72375461 1091.53866975 162.43115104 1113.11755494 114.91796875 1126.171875 C112.40701721 1126.86238667 109.90652777 1127.5920693 107.41796875 1128.359375 C91.63138176 1133.16247028 75.28053554 1135.87706458 59.07281494 1138.85290527 C57.44565057 1139.15207119 55.81918605 1139.45503945 54.19287109 1139.75878906 C39.07010146 1142.54892349 23.68314902 1143.76170638 8.36865234 1145.01867676 C6.73078834 1145.1559528 5.09385879 1145.30446982 3.45751953 1145.4588623 C-6.21124073 1146.30869143 -15.83733594 1146.38495678 -25.53515625 1146.40625 C-26.41981316 1146.40907738 -27.30447006 1146.41190475 -28.21593475 1146.41481781 C-32.91593206 1146.42973105 -37.6158994 1146.43900496 -42.31591797 1146.44335938 C-46.12428572 1146.44770563 -49.93242201 1146.46145776 -53.74072266 1146.484375 C-77.63886774 1146.62517625 -101.08081467 1145.92691955 -124.83203125 1143.203125 C-126.78766737 1142.9906782 -128.74338898 1142.77901592 -130.69921875 1142.56835938 C-135.54143246 1142.03508281 -140.37495584 1141.44604166 -145.20703125 1140.828125 C-146.03813416 1140.7229657 -146.86923706 1140.6178064 -147.7255249 1140.50946045 C-180.98851136 1136.27452935 -213.84327564 1129.30699026 -245.83203125 1119.203125 C-246.47700562 1118.9998761 -247.12197998 1118.7966272 -247.78649902 1118.58721924 C-284.72338192 1106.92139125 -320.82913768 1092.88603355 -354.83203125 1074.203125 C-356.05841309 1073.53506836 -356.05841309 1073.53506836 -357.30957031 1072.85351562 C-377.45962958 1061.82581047 -396.5188774 1049.0553824 -414.83203125 1035.203125 C-414.15470119 1031.48445015 -412.52308097 1028.69300052 -410.61328125 1025.453125 C-410.11926315 1024.61112801 -410.11926315 1024.61112801 -409.61526489 1023.75212097 C-408.52601276 1021.89936061 -407.4292406 1020.05118252 -406.33203125 1018.203125 C-405.56015957 1016.89507063 -404.78851609 1015.58688157 -404.01708984 1014.27856445 C-398.21016861 1004.44913347 -392.29762992 994.68523615 -386.3515625 984.93945312 C-380.94241854 976.06792991 -375.6239059 967.14501318 -370.33203125 958.203125 C-364.07202592 947.62932213 -357.76916156 937.08326983 -351.39453125 926.578125 C-351.03713867 925.98821777 -350.67974609 925.39831055 -350.31152344 924.79052734 C-349.30040433 923.12241596 -348.28696666 921.45571065 -347.2734375 919.7890625 C-346.70310791 918.8511084 -346.13277832 917.9131543 -345.54516602 916.94677734 C-343.69854368 913.98933943 -341.77927017 911.09508508 -339.83203125 908.203125 C-337.08682183 909.49452384 -334.74254753 910.91664515 -332.35546875 912.78515625 C-331.69458252 913.29812256 -331.03369629 913.81108887 -330.3527832 914.33959961 C-329.64468506 914.89268799 -328.93658691 915.44577637 -328.20703125 916.015625 C-305.45827157 933.55433466 -281.84450918 948.91551924 -256.61767578 962.68115234 C-254.21209165 963.99547412 -251.81577532 965.32474142 -249.421875 966.66015625 C-224.95431922 980.14707781 -198.57846402 990.68627548 -171.76953125 998.453125 C-170.19473999 998.91090332 -170.19473999 998.91090332 -168.58813477 999.37792969 C-150.49609708 1004.43959618 -132.22356993 1007.87330128 -113.57788086 1010.08886719 C-110.50137862 1010.45528703 -107.42751076 1010.83972485 -104.35351562 1011.2265625 C-84.84580557 1013.64081397 -65.63523398 1014.38981762 -45.98364258 1014.38842773 C-42.53519346 1014.39061507 -39.08706488 1014.40885049 -35.63867188 1014.42773438 C-21.91277611 1014.46334714 -8.45869805 1013.84876628 5.16796875 1012.203125 C5.89412384 1012.11860077 6.62027893 1012.03407654 7.36843872 1011.94699097 C53.60576286 1006.52797631 99.0462979 993.79630711 137.16796875 966.203125 C137.78575195 965.76033203 138.40353516 965.31753906 139.04003906 964.86132812 C172.17319181 940.84656346 193.13767092 906.44011122 200.16796875 866.203125 C201.44229198 857.04634366 201.37020043 847.80418752 201.35546875 838.578125 C201.35453217 837.8213446 201.35359558 837.06456421 201.35263062 836.28485107 C201.25610171 800.34091131 192.28566431 763.89349819 168.16796875 736.203125 C167.66362305 735.62191895 167.15927734 735.04071289 166.63964844 734.44189453 C159.71738186 726.55270149 152.47194573 719.64963345 144.16796875 713.203125 C142.37417253 711.70567231 140.58253191 710.20563395 138.79296875 708.703125 C132.82546989 703.8366717 126.59121223 699.43801313 120.16796875 695.203125 C119.48234863 694.75066406 118.79672852 694.29820312 118.09033203 693.83203125 C66.42105898 659.97460749 8.07618481 637.5095487 -49.35025024 615.57775879 C-65.32988941 609.46760849 -81.12226371 602.97529963 -96.83203125 596.203125 C-97.92080566 595.73455078 -99.00958008 595.26597656 -100.13134766 594.78320312 C-133.6127601 580.32636909 -166.79226958 564.99411284 -198.33935547 546.64794922 C-200.57959249 545.34944553 -202.82973985 544.07126668 -205.0859375 542.80078125 C-229.86222396 528.71938125 -253.54998507 512.15221219 -274.83203125 493.203125 C-275.37956055 492.71875977 -275.92708984 492.23439453 -276.49121094 491.73535156 C-312.06168392 460.13357231 -338.59490378 418.6570409 -349.83203125 372.203125 C-350.03779785 371.38473145 -350.24356445 370.56633789 -350.45556641 369.72314453 C-353.21272044 358.71745259 -355.37395133 347.66985899 -357.08203125 336.453125 C-357.24517822 335.4019751 -357.4083252 334.3508252 -357.57641602 333.26782227 C-361.88521183 303.4548077 -362.68439552 269.76225897 -356.83203125 240.203125 C-356.62803711 239.14174316 -356.42404297 238.08036133 -356.21386719 236.98681641 C-347.45537484 192.33380413 -328.25048427 151.28129815 -297.83203125 117.203125 C-297.11015625 116.37167969 -296.38828125 115.54023437 -295.64453125 114.68359375 C-285.91049659 103.60755064 -275.50913007 93.2215312 -263.83203125 84.203125 C-262.54403331 83.18649877 -261.25629127 82.16954829 -259.96875 81.15234375 C-216.90224876 47.3935857 -166.09496256 24.92109167 -112.89306641 12.8984375 C-109.97646268 12.23593252 -107.06631313 11.54995009 -104.15625 10.859375 C-70.10625098 2.93654048 -34.90201519 0.07945844 0 0 Z " fill="#FEFEFE" transform="translate(1028.83203125,426.796875)"/>
</svg>
